<svg width="250" height="162" viewBox="0 0 250 162" fill="none" xmlns="http://www.w3.org/2000/svg">
<path d="M249.966 0.539995V32.05H207.186V162H167.856V32.05H125.076V0.539995H249.966Z" fill="#2B2B30"/>
<path d="M125.466 0.539995V32.05H82.6857V162H43.3557V32.05H0.575684V0.539995H125.466Z" fill="#2B2B30"/>
<path d="M168 162L150.181 147.307C136.263 158.436 119.87 162 100.5 162C88.878 162 78.5118 162.045 69.9029 158.135C61.294 154.074 54.6221 148.435 49.8872 141.216C45.2957 133.847 43 125.275 43 115.499C43 105.574 45.511 96.6254 50.5328 88.6547C55.6982 80.5337 63.3745 73.9166 73.5617 68.8033C69.8312 63.9908 67.1768 59.4039 65.5984 55.0426C64.0201 50.5309 63.231 45.6433 63.231 40.3796C63.231 32.8602 65.0963 26.0174 68.8268 19.8514C72.5573 13.6855 77.9379 8.87299 84.9685 5.41403C92.1426 1.80468 100.743 0.5 110.5 0.5C120.4 0.5 128.659 1.87987 135.546 5.63961C142.433 9.39936 147.598 14.4374 151.042 20.7538C154.486 27.0702 156.064 33.9881 155.777 41.5076H121.126C121.269 37.447 120.152 36.1055 118 34C115.991 31.7442 113.378 32.033 109.934 32.033C106.491 32.033 104.296 32.3945 102 34.5C99.5289 36.5 99 38.6914 99 42C99 45.1582 98.8145 46.6208 100.68 50.0798C102.689 53.5387 105.773 57.5241 109.934 62.0358L147 100C148.5 98.5 148.5 98.5 149.5 97.5C151.748 95.2524 154 93 155 92L168 79.1802H207C207 79.1802 194 93 187 100.5C180 108 175 113.5 168 121.5L207 162H168ZM102 132C111.613 132 120.122 130.012 127.583 124.297L94.0079 90.2338C86.5 98 83 103 83 112.5C83 118.215 83.839 122.59 88 126.5C92.3045 130.26 94.8259 132 102 132Z" fill="#0058A8"/>
</svg>
